# xmcd
#
# Track frame offsets:
#	182
#	15482
#	32597
#	45345
#	59607
#	77675
#	95257
#	109137
#	121725
#	140030
#	152057
#	166525
#	182155
#	195692
#	208052
#	220652
#
# Disc length: 3119 seconds
#
# Revision: 1
# Processed by: cddbd v1.5.1PL0 Copyright (c) Steve Scherf et al.
# Submitted via: EasyCDDAExtractor 6.5.7.1
#
DISCID=ce0c2d10
DTITLE=os mirins - mate da esperança
DYEAR=1900
DGENRE=Country
TTITLE0=Timbre de Galo
TTITLE1=Depois do Apito
TTITLE2=Eu sou do Sul
TTITLE3=O jeito da minha Gaita
TTITLE4=La Paloma
TTITLE5=Cobra Sucuri
TTITLE6=Flor de Chamame
TTITLE7=De Volta
TTITLE8=Mate da Esperança
TTITLE9=Pra Você
TTITLE10=Vanerinha da Paixão
TTITLE11=Ha Ha Haia Lagartixa Baia
TTITLE12=Tchê de Bombacha
TTITLE13=Docê Saudade
TTITLE14=Morena linda de Rosa
TTITLE15=Bugio na Vaneira
EXTD=
EXTT0=
EXTT1=
EXTT2=
EXTT3=
EXTT4=
EXTT5=
EXTT6=
EXTT7=
EXTT8=
EXTT9=
EXTT10=
EXTT11=
EXTT12=
EXTT13=
EXTT14=
EXTT15=
PLAYORDER=
